<?xml version="1.0" encoding="iso-8859-1"?>
<!-- Generator: Adobe Illustrator 19.0.0, SVG Export Plug-In . SVG Version: 6.00 Build 0)  -->
<svg version="1.1" id="Capa_1" xmlns="http://www.w3.org/2000/svg" xmlns:xlink="http://www.w3.org/1999/xlink" x="0px" y="0px"
	 viewBox="0 0 512 512" style="enable-background:new 0 0 512 512;" xml:space="preserve">
<g>
	<g>
		<path d="M331.045,0H96.379C49.445,0,11.045,38.4,11.045,85.333c-2.133,142.933,42.667,232.533,64,256h245.333
			c61.867-70.4,96-162.133,96-256C416.379,38.4,377.979,0,331.045,0z"/>
	</g>
</g>
<g>
	<g>
		<path d="M463.312,125.867c-8.533-6.4-17.067-14.933-27.733-17.067c-4.267,91.733-40.533,177.067-100.267,245.333l-6.4,8.533
			h-53.333v42.667c0,12.8-8.533,21.333-21.333,21.333h-85.333c-12.8,0-21.333-8.533-21.333-21.333v-42.667h-64v128
			c0,12.8,8.533,21.333,21.333,21.333h213.333c12.8,0,21.333-8.533,21.333-21.333V373.333l130.133-108.8
			C514.512,226.133,510.245,157.867,463.312,125.867z"/>
	</g>
</g>
<g>
</g>
<g>
</g>
<g>
</g>
<g>
</g>
<g>
</g>
<g>
</g>
<g>
</g>
<g>
</g>
<g>
</g>
<g>
</g>
<g>
</g>
<g>
</g>
<g>
</g>
<g>
</g>
<g>
</g>
</svg>
